<svg id="icon" xmlns="http://www.w3.org/2000/svg" viewBox="0 0 192 192">

<style type="text/css">
                .st0{stroke:#0D0D0D;}
</style>
    <line class="st0" x1="64" y1="20.24" x2="64" y2="44.24" fill="none" stroke-linecap="round" stroke-miterlimit="10" stroke-width="8"/>
    <line class="st0" x1="128" y1="20.24" x2="128" y2="44.24" fill="none" stroke-linecap="round" stroke-miterlimit="10" stroke-width="8"/>
    <path class="st0" d="M164,150.24a22,22,0,0,1-22,22H50a22,22,0,0,1-22-22v-92a22,22,0,0,1,22-22H164Z" fill="none" troke-linecap="round" stroke-miterlimit="10" stroke-width="8"/>
    <line class="st0" x1="164" y1="60.52" x2="28" y2="60.52" fill="none" stroke-linecap="round" stroke-miterlimit="10" stroke-width="8"/>
    <rect class="st0" x="48" y="84.41" width="20.63" height="20.63" rx="4" fill="none" stroke-linecap="round" stroke-linejoin="round" stroke-width="8"/>
    <rect class="st0" x="85.44" y="84.41" width="20.63" height="20.63" rx="4" fill="none" stroke-linecap="round" stroke-linejoin="round" stroke-width="8"/>
    <rect class="st0" x="123.37" y="84.36" width="20.63" height="20.63" rx="4" fill="none" stroke-linecap="round" stroke-linejoin="round" stroke-width="8"/>
    <rect class="st0" x="48" y="127.78" width="20.63" height="20.63" rx="4" fill="none" stroke-linecap="round" stroke-linejoin="round" stroke-width="8"/>
    <rect class="st0" x="85.44" y="127.78" width="20.63" height="20.63" rx="4" fill="none" stroke-linecap="round" stroke-linejoin="round" stroke-width="8"/>
    <rect class="st0" x="123.37" y="127.73" width="20.63" height="20.63" rx="4" fill="none" stroke-linecap="round" stroke-linejoin="round" stroke-width="8"/>
</svg>
