<svg id="icon" xmlns="http://www.w3.org/2000/svg" viewBox="0 0 192 192">

<style type="text/css">
                .st0{stroke:#0D0D0D;}
</style>
      <path class="st0" d="M28,139.73C32.88,110,50.34,91.8,72,91.8a36.76,36.76,0,0,1,19.08,5.28l.3.19" fill="none" stroke-linecap="round" stroke-miterlimit="10" stroke-width="8"/>
      <path class="st0" d="M121,94a27.8,27.8,0,0,1,11-2.24c15.75,0,28.44,12.63,32,33.27" fill="none" stroke-linecap="round" stroke-miterlimit="10" stroke-width="8"/>
      <path class="st0" d="M131.65,155.73c-3.43-19.88-14.81-30.12-27.48-30.12s-24.38,10.24-27.82,30.12" fill="none" stroke-linecap="round" stroke-linejoin="round" stroke-width="8"/>
      <path class="st0" d="M72,35.73h28a0,0,0,0,1,0,0v28a28,28,0,0,1-28,28h0a28,28,0,0,1-28-28v0A28,28,0,0,1,72,35.73Z" fill="none" stroke-linecap="round" stroke-miterlimit="10" stroke-width="8"/>
      <path class="st0" d="M132,51.72h20a0,0,0,0,1,0,0v20a20,20,0,0,1-20,20h0a20,20,0,0,1-20-20v0a20,20,0,0,1,20-20Z" fill="none" stroke-linecap="round" stroke-miterlimit="10" stroke-width="8"/>
      <path class="st0" d="M104,91.66h17a0,0,0,0,1,0,0v17a17,17,0,0,1-17,17h0a17,17,0,0,1-17-17v0a17,17,0,0,1,17-17Z" fill="none" stroke-linecap="round" stroke-miterlimit="10" stroke-width="8"/>
</svg>
